<svg xmlns="http://www.w3.org/2000/svg" version="1.1" xmlns:xlink="http://www.w3.org/1999/xlink" xmlns:svgjs="http://svgjs.dev/svgjs" width="1000" height="1000" viewBox="0 0 1000 1000"><rect width="1000" height="1000" fill="#000000"></rect><g transform="matrix(0.7,0,0,0.7,149.57575759647426,416.5941725263392)"><svg viewBox="0 0 396 95" data-background-color="#ffffff" preserveAspectRatio="xMidYMid meet" height="239" width="1000" xmlns="http://www.w3.org/2000/svg" xmlns:xlink="http://www.w3.org/1999/xlink"><g id="tight-bounds" transform="matrix(1,0,0,1,0.24000001171970098,-0.13865146444845777)"><svg viewBox="0 0 395.52 95.2773029288969" height="95.2773029288969" width="395.52"><g><svg viewBox="0 0 536.8846926690637 129.33081892525814" height="95.2773029288969" width="395.52"><g transform="matrix(1,0,0,1,0,17.87423040139241)"><svg viewBox="0 0 395.52 93.58235812247332" height="93.58235812247332" width="395.52"><g id="textblocktransform"><svg viewBox="0 0 395.52 93.58235812247332" height="93.58235812247332" width="395.52" id="textblock"><g><svg viewBox="0 0 395.52 50.97457489878542" height="50.97457489878542" width="395.52"><g transform="matrix(1,0,0,1,0,0)"><svg width="395.52" viewBox="0.3500000238418579 -32.75 296.3800048828125 38.20000076293945" height="50.97457489878542" data-palette-color="#ee3e38"><path d="M13.85-32.25L13.4-10.65 13.5-6.1Q13.5-3.15 12.53-1.07 11.55 1 9.3 2.55 7.05 4.1 3.1 5.45L3.1 5.45 0.8 1.2 0.8 0.5Q3.7-0.95 4.85-2.45 6-3.95 6-6.3L6-6.3 6-9.85 5.7-26.45 0.85-26.3 0.35-26.85 0.7-32.25 13.85-32.25ZM37.75-32.25L47.2 0 38.95 0 38.1-4.65 37.65-6.5 31.85-6.6 26.85-6.45 26.45-5.15 25.55 0 17.6 0 28-32.25 37.75-32.25ZM32.4-12.5L36.1-12.6 32.95-24.85 32.45-24.85 28.7-12.6 32.4-12.5ZM83.05-32.25L85.8 0 78.64 0 78.25-9.8 77.34-20.4 76.84-20.4 70.44-3.25 64.25-3.25 58.64-20.4 58.09-20.4 57.09-10.55 56.45 0 49.7 0 52.89-32.25 62.24-32.25 63.39-27.55 67.55-13.75 68.05-13.75 72.55-27.4 73.84-32.25 83.05-32.25ZM102.54-32.75Q106.84-32.75 111.24-31.05L111.24-31.05 109.94-24.25 108.74-23.8Q106.84-25.05 104.94-25.75 103.04-26.45 101.64-26.45L101.64-26.45Q99.99-26.45 99.02-25.63 98.04-24.8 98.04-23.7L98.04-23.7Q98.04-22.45 99.27-21.58 100.49-20.7 103.14-19.5L103.14-19.5Q105.94-18.2 107.67-17.13 109.39-16.05 110.67-14.25 111.94-12.45 111.94-9.85L111.94-9.85Q111.94-6.95 110.37-4.6 108.79-2.25 105.89-0.88 102.99 0.5 99.19 0.5L99.19 0.5Q94.14 0.5 89.19-1.5L89.19-1.5 90.34-8.75 91.19-9.25Q93.29-7.5 95.77-6.53 98.24-5.55 100.04-5.55L100.04-5.55Q101.94-5.55 102.92-6.4 103.89-7.25 103.89-8.4L103.89-8.4Q103.89-9.75 102.64-10.65 101.39-11.55 98.74-12.75L98.74-12.75Q96.04-14 94.32-15.08 92.59-16.15 91.34-17.95 90.09-19.75 90.09-22.35L90.09-22.35Q90.09-25.3 91.67-27.68 93.24-30.05 96.07-31.4 98.89-32.75 102.54-32.75L102.54-32.75ZM130.14-6.3L138.24-6.6 138.69-6 138.19 0 116.89 0 117.34-9.55 116.89-32.25 138.49-32.25 138.94-31.65 138.39-25.65 130.54-25.95 125.04-25.9 124.94-19.45 130.19-19.45 135.44-19.6 135.89-19 135.39-13 129.64-13.15 124.79-13.15 124.74-10.35 124.84-6.35 130.14-6.3ZM154.14-32.75Q158.44-32.75 162.84-31.05L162.84-31.05 161.54-24.25 160.34-23.8Q158.44-25.05 156.54-25.75 154.64-26.45 153.24-26.45L153.24-26.45Q151.59-26.45 150.61-25.63 149.64-24.8 149.64-23.7L149.64-23.7Q149.64-22.45 150.86-21.58 152.09-20.7 154.74-19.5L154.74-19.5Q157.54-18.2 159.26-17.13 160.99-16.05 162.26-14.25 163.54-12.45 163.54-9.85L163.54-9.85Q163.54-6.95 161.96-4.6 160.39-2.25 157.49-0.88 154.59 0.5 150.79 0.5L150.79 0.5Q145.74 0.5 140.79-1.5L140.79-1.5 141.94-8.75 142.79-9.25Q144.89-7.5 147.36-6.53 149.84-5.55 151.64-5.55L151.64-5.55Q153.54-5.55 154.51-6.4 155.49-7.25 155.49-8.4L155.49-8.4Q155.49-9.75 154.24-10.65 152.99-11.55 150.34-12.75L150.34-12.75Q147.64-14 145.91-15.08 144.19-16.15 142.94-17.95 141.69-19.75 141.69-22.35L141.69-22.35Q141.69-25.3 143.26-27.68 144.84-30.05 147.66-31.4 150.49-32.75 154.14-32.75L154.14-32.75ZM179.64-32.75Q183.94-32.75 188.34-31.05L188.34-31.05 187.04-24.25 185.84-23.8Q183.94-25.05 182.04-25.75 180.14-26.45 178.74-26.45L178.74-26.45Q177.09-26.45 176.11-25.63 175.14-24.8 175.14-23.7L175.14-23.7Q175.14-22.45 176.36-21.58 177.59-20.7 180.24-19.5L180.24-19.5Q183.04-18.2 184.76-17.13 186.49-16.05 187.76-14.25 189.04-12.45 189.04-9.85L189.04-9.85Q189.04-6.95 187.46-4.6 185.89-2.25 182.99-0.88 180.09 0.5 176.29 0.5L176.29 0.5Q171.24 0.5 166.29-1.5L166.29-1.5 167.44-8.75 168.29-9.25Q170.39-7.5 172.86-6.53 175.34-5.55 177.14-5.55L177.14-5.55Q179.04-5.55 180.01-6.4 180.99-7.25 180.99-8.4L180.99-8.4Q180.99-9.75 179.74-10.65 178.49-11.55 175.84-12.75L175.84-12.75Q173.14-14 171.41-15.08 169.69-16.15 168.44-17.95 167.19-19.75 167.19-22.35L167.19-22.35Q167.19-25.3 168.76-27.68 170.34-30.05 173.16-31.4 175.99-32.75 179.64-32.75L179.64-32.75ZM202.28-32.25L201.83-10.35 202.13 0 193.98 0 194.43-9.55 193.98-32.25 202.28-32.25ZM222.43-32.75Q229.33-32.75 233.08-28.63 236.83-24.5 236.83-16.9L236.83-16.9Q236.83-8.6 232.73-4.03 228.63 0.55 221.18 0.55L221.18 0.55Q214.33 0.55 210.58-3.68 206.83-7.9 206.83-15.65L206.83-15.65Q206.83-23.85 210.91-28.3 214.98-32.75 222.43-32.75L222.43-32.75ZM221.73-26.25Q219.38-26.25 217.98-25.33 216.58-24.4 215.93-22.33 215.28-20.25 215.28-16.7L215.28-16.7Q215.28-12.45 215.93-10.03 216.58-7.6 218.01-6.55 219.43-5.5 221.88-5.5L221.88-5.5Q224.28-5.5 225.68-6.43 227.08-7.35 227.71-9.45 228.33-11.55 228.33-15.2L228.33-15.2Q228.33-19.4 227.68-21.8 227.03-24.2 225.63-25.23 224.23-26.25 221.73-26.25L221.73-26.25ZM269.18-32.4L268.73-10.2 269.03 0 260.23 0 248.78-19.95 248.28-19.95 248.23-11.35 248.53 0 241.18 0 241.58-9.5 241.18-32.25 249.93-32.25 261.43-12.3 261.93-12.3 261.73-31.95 269.18-32.4ZM287.32-32.75Q291.63-32.75 296.03-31.05L296.03-31.05 294.73-24.25 293.53-23.8Q291.63-25.05 289.73-25.75 287.82-26.45 286.43-26.45L286.43-26.45Q284.78-26.45 283.8-25.63 282.82-24.8 282.82-23.7L282.82-23.7Q282.82-22.45 284.05-21.58 285.28-20.7 287.93-19.5L287.93-19.5Q290.73-18.2 292.45-17.13 294.18-16.05 295.45-14.25 296.73-12.45 296.73-9.85L296.73-9.85Q296.73-6.95 295.15-4.6 293.57-2.25 290.68-0.88 287.78 0.5 283.98 0.5L283.98 0.5Q278.93 0.5 273.98-1.5L273.98-1.5 275.13-8.75 275.98-9.25Q278.07-7.5 280.55-6.53 283.03-5.55 284.82-5.55L284.82-5.55Q286.73-5.55 287.7-6.4 288.68-7.25 288.68-8.4L288.68-8.4Q288.68-9.75 287.43-10.65 286.18-11.55 283.53-12.75L283.53-12.75Q280.82-14 279.1-15.08 277.38-16.15 276.13-17.95 274.88-19.75 274.88-22.35L274.88-22.35Q274.88-25.3 276.45-27.68 278.03-30.05 280.85-31.4 283.68-32.75 287.32-32.75L287.32-32.75Z" opacity="1" transform="matrix(1,0,0,1,0,0)" fill="#ffffff" class="undefined-text-0" data-fill-palette-color="primary" id="text-0"></path></svg></g></svg></g><g transform="matrix(1,0,0,1,163.310208,63.00844864259109)"><svg viewBox="0 0 232.209792 30.57390947988224" height="30.57390947988224" width="232.209792"><g transform="matrix(1,0,0,1,0,0)"><svg width="232.209792" viewBox="1.9500000476837158 -38.5 298.5099792480469 39.310001373291016" height="30.57390947988224" data-palette-color="#ee3e38"><path d="M22.46-26.95Q22.46-29.1 21.68-30.18 20.9-31.25 19.96-31.82 19.02-32.4 17.9-32.7 16.77-33.01 15.65-33.01L15.65-33.01Q13.79-33.01 12.4-32.58 11.01-32.15 10.1-31.42 9.18-30.69 8.72-29.71 8.25-28.74 8.25-27.66L8.25-27.66Q8.25-26.05 8.83-25.06 9.4-24.07 10.28-23.47 11.16-22.88 12.22-22.53 13.28-22.19 14.26-21.85L14.26-21.85 19.19-20.24Q21.41-19.53 23.11-18.63 24.8-17.72 25.95-16.49 27.1-15.26 27.7-13.65 28.3-12.04 28.3-9.91L28.3-9.91Q28.3-7.62 27.36-5.66 26.42-3.71 24.73-2.27 23.05-0.83 20.72-0.01 18.38 0.81 15.6 0.81L15.6 0.81Q12.74 0.81 10.72 0.16 8.69-0.49 7.31-1.57 5.93-2.66 5.1-4.05 4.27-5.44 3.81-6.91L3.81-6.91 1.95-6.91 1.95-11.11 8.11-11.11Q8.11-8.4 8.68-7.28 9.25-6.15 10.28-5.41 11.3-4.66 12.72-4.28 14.14-3.91 15.84-3.91L15.84-3.91Q17.5-3.91 18.84-4.3 20.17-4.69 21.11-5.43 22.05-6.18 22.55-7.24 23.05-8.3 23.05-9.64L23.05-9.64Q23.05-11.13 22.42-12.17 21.8-13.21 20.83-13.94 19.85-14.67 18.69-15.14 17.53-15.6 16.46-15.94L16.46-15.94 11.11-17.46Q9.35-17.99 7.9-18.82 6.45-19.65 5.41-20.85 4.37-22.05 3.81-23.65 3.25-25.24 3.25-27.34L3.25-27.34Q3.25-29.47 4.08-31.32 4.91-33.18 6.52-34.57 8.13-35.96 10.46-36.76 12.79-37.55 15.8-37.55L15.8-37.55Q17.77-37.55 19.45-37.08 21.12-36.62 22.47-35.78 23.83-34.94 24.87-33.75 25.9-32.57 26.61-31.15L26.61-31.15 28.44-31.15 28.44-26.95 22.46-26.95ZM39.3-33.45L39.3-25.29 45.24-25.29 45.24-21.61 39.26-21.61 39.18-7.01Q39.18-5.52 39.52-4.59 39.87-3.66 40.62-3.31 41.38-2.95 42.33-2.95L42.33-2.95Q43.36-2.95 44.14-3.14 44.92-3.32 45.85-3.76L45.85-3.76 46.9-0.71Q45.73-0.1 44.43 0.26 43.14 0.61 41.38 0.61L41.38 0.61Q39.72 0.61 38.49 0.21 37.25-0.2 36.41-1.15 35.57-2.1 35.15-3.7 34.74-5.3 34.74-7.69L34.74-7.69 34.81-21.61 30.78-21.61 30.78-25.29 34.86-25.29 34.86-31.35 39.3-33.45ZM65.45 0L65.45-2.34Q64.01-1 62.26-0.15 60.52 0.71 58.3 0.71L58.3 0.71Q56.44 0.71 54.89 0.12 53.34-0.46 52.22-1.48 51.09-2.49 50.47-3.83 49.85-5.18 49.85-6.69L49.85-6.69Q49.85-8.3 50.32-9.55 50.8-10.79 51.59-11.71 52.39-12.62 53.45-13.24 54.51-13.87 55.67-14.25 56.83-14.62 58.04-14.78 59.25-14.94 60.35-14.94L60.35-14.94Q62.1-14.94 63.3-14.83 64.5-14.72 65.47-14.53L65.47-14.53 65.5-16.6Q65.5-17.94 65.11-18.93 64.72-19.92 64.01-20.57 63.3-21.22 62.31-21.53 61.32-21.85 60.1-21.85L60.1-21.85Q58.95-21.85 57.91-21.69 56.86-21.53 55.94-21.28 55.02-21.02 54.26-20.69 53.49-20.36 52.95-20L52.95-20 51.46-23.14Q52.36-23.73 53.44-24.23 54.51-24.73 55.7-25.09 56.88-25.44 58.11-25.65 59.35-25.85 60.54-25.85L60.54-25.85Q62.74-25.85 64.5-25.33 66.25-24.8 67.48-23.71 68.7-22.61 69.36-20.91 70.01-19.21 70.01-16.85L70.01-16.85 69.99-4.2 72.8-4.2 72.8 0 65.45 0ZM59.3-3.1L59.3-3.1Q60.2-3.1 61.1-3.32 62.01-3.54 62.81-3.92 63.62-4.3 64.3-4.8 64.99-5.3 65.45-5.83L65.45-5.83 65.47-11.55 60.2-11.55Q58.88-11.55 57.8-11.25 56.71-10.96 55.92-10.4 55.12-9.84 54.68-9.01 54.24-8.18 54.24-7.1L54.24-7.1Q54.24-6.1 54.61-5.36 54.98-4.61 55.65-4.11 56.32-3.61 57.25-3.36 58.17-3.1 59.3-3.1ZM96.11-25.44L96.11-19.95 91.47-19.95 91.47-21.51Q90.67-21.51 89.82-21.2 88.98-20.9 88.25-20.28 87.52-19.65 86.97-18.69 86.42-17.72 86.17-16.41L86.17-16.41 86.17-4.2 90.47-4.2 90.47 0 77.92 0 77.92-4.2 81.41-4.2 81.44-21.09 77.92-21.09 77.92-25.29 86-25.29 86-21.8Q86.44-22.58 86.99-23.25 87.54-23.93 88.21-24.43 88.88-24.93 89.7-25.21 90.52-25.49 91.47-25.49L91.47-25.49Q92.74-25.49 93.86-25.49 94.99-25.49 96.11-25.44L96.11-25.44ZM108.68-33.45L108.68-25.29 114.61-25.29 114.61-21.61 108.63-21.61 108.56-7.01Q108.56-5.52 108.9-4.59 109.24-3.66 110-3.31 110.76-2.95 111.71-2.95L111.71-2.95Q112.73-2.95 113.52-3.14 114.3-3.32 115.22-3.76L115.22-3.76 116.27-0.71Q115.1-0.1 113.81 0.26 112.51 0.61 110.76 0.61L110.76 0.61Q109.1 0.61 107.86 0.21 106.63-0.2 105.79-1.15 104.95-2.1 104.53-3.7 104.12-5.3 104.12-7.69L104.12-7.69 104.19-21.61 100.16-21.61 100.16-25.29 104.24-25.29 104.24-31.35 108.68-33.45ZM117.52 0Q117.52 0 117.52 0ZM145.76 0L145.76-2.34Q144.32-1 142.58-0.15 140.83 0.71 138.61 0.71L138.61 0.71Q136.75 0.71 135.2 0.12 133.65-0.46 132.53-1.48 131.41-2.49 130.78-3.83 130.16-5.18 130.16-6.69L130.16-6.69Q130.16-8.3 130.64-9.55 131.11-10.79 131.91-11.71 132.7-12.62 133.76-13.24 134.82-13.87 135.98-14.25 137.14-14.62 138.35-14.78 139.56-14.94 140.66-14.94L140.66-14.94Q142.42-14.94 143.61-14.83 144.81-14.72 145.79-14.53L145.79-14.53 145.81-16.6Q145.81-17.94 145.42-18.93 145.03-19.92 144.32-20.57 143.61-21.22 142.62-21.53 141.64-21.85 140.41-21.85L140.41-21.85Q139.27-21.85 138.22-21.69 137.17-21.53 136.25-21.28 135.34-21.02 134.57-20.69 133.8-20.36 133.26-20L133.26-20 131.77-23.14Q132.68-23.73 133.75-24.23 134.82-24.73 136.01-25.09 137.19-25.44 138.42-25.65 139.66-25.85 140.85-25.85L140.85-25.85Q143.05-25.85 144.81-25.33 146.57-24.8 147.79-23.71 149.01-22.61 149.67-20.91 150.33-19.21 150.33-16.85L150.33-16.85 150.3-4.2 153.11-4.2 153.11 0 145.76 0ZM139.61-3.1L139.61-3.1Q140.51-3.1 141.42-3.32 142.32-3.54 143.12-3.92 143.93-4.3 144.61-4.8 145.3-5.3 145.76-5.83L145.76-5.83 145.79-11.55 140.51-11.55Q139.19-11.55 138.11-11.25 137.02-10.96 136.23-10.4 135.43-9.84 134.99-9.01 134.56-8.18 134.56-7.1L134.56-7.1Q134.56-6.1 134.92-5.36 135.29-4.61 135.96-4.11 136.63-3.61 137.56-3.36 138.49-3.1 139.61-3.1ZM155.79 0Q155.79 0 155.79 0ZM168.12-33.79L168.12-37.99 176.32-37.99 176.32-23.19Q177.93-24.44 179.84-25.17 181.74-25.9 183.77-25.9L183.77-25.9Q186.26-25.9 188.33-24.98 190.41-24.05 191.91-22.36 193.41-20.68 194.24-18.32 195.07-15.97 195.07-13.11L195.07-13.11Q195.07-10.06 194.15-7.58 193.22-5.1 191.57-3.32 189.92-1.54 187.65-0.57 185.38 0.39 182.67 0.39L182.67 0.39Q180.79 0.39 179.14-0.16 177.49-0.71 176.32-1.59L176.32-1.59 176.32 0 171.78 0 171.78-33.79 168.12-33.79ZM182.57-21.9L182.57-21.9Q180.79-21.9 179.15-21.17 177.52-20.43 176.32-19.19L176.32-19.19 176.32-5.59Q177.1-4.79 178.62-4.16 180.13-3.54 182.43-3.54L182.43-3.54Q183.99-3.54 185.43-4.13 186.87-4.71 187.97-5.9 189.07-7.08 189.73-8.84 190.39-10.6 190.39-12.94L190.39-12.94Q190.39-15.09 189.76-16.75 189.14-18.41 188.08-19.56 187.02-20.7 185.6-21.3 184.18-21.9 182.57-21.9ZM214.63 0L214.63-2.34Q213.19-1 211.44-0.15 209.69 0.71 207.47 0.71L207.47 0.71Q205.62 0.71 204.07 0.12 202.52-0.46 201.39-1.48 200.27-2.49 199.65-3.83 199.03-5.18 199.03-6.69L199.03-6.69Q199.03-8.3 199.5-9.55 199.98-10.79 200.77-11.71 201.56-12.62 202.63-13.24 203.69-13.87 204.85-14.25 206.01-14.62 207.22-14.78 208.42-14.94 209.52-14.94L209.52-14.94Q211.28-14.94 212.48-14.83 213.67-14.72 214.65-14.53L214.65-14.53 214.67-16.6Q214.67-17.94 214.28-18.93 213.89-19.92 213.19-20.57 212.48-21.22 211.49-21.53 210.5-21.85 209.28-21.85L209.28-21.85Q208.13-21.85 207.08-21.69 206.03-21.53 205.12-21.28 204.2-21.02 203.43-20.69 202.66-20.36 202.13-20L202.13-20 200.64-23.14Q201.54-23.73 202.61-24.23 203.69-24.73 204.87-25.09 206.06-25.44 207.29-25.65 208.52-25.85 209.72-25.85L209.72-25.85Q211.92-25.85 213.67-25.33 215.43-24.8 216.65-23.71 217.87-22.61 218.53-20.91 219.19-19.21 219.19-16.85L219.19-16.85 219.17-4.2 221.97-4.2 221.97 0 214.63 0ZM208.47-3.1L208.47-3.1Q209.38-3.1 210.28-3.32 211.18-3.54 211.99-3.92 212.79-4.3 213.48-4.8 214.16-5.3 214.63-5.83L214.63-5.83 214.65-11.55 209.38-11.55Q208.06-11.55 206.97-11.25 205.89-10.96 205.09-10.4 204.3-9.84 203.86-9.01 203.42-8.18 203.42-7.1L203.42-7.1Q203.42-6.1 203.79-5.36 204.15-4.61 204.82-4.11 205.5-3.61 206.42-3.36 207.35-3.1 208.47-3.1ZM243.75 0L243.75-4.2 247.31-4.2 247.31-15.75Q247.31-18.65 245.84-20.15 244.36-21.66 241.6-21.66L241.6-21.66Q240.01-21.66 238.4-20.9 236.79-20.14 235.35-19.02L235.35-19.02 235.35-4.2 238.92-4.2 238.92 0 227.1 0 227.1-4.2 230.61-4.2 230.61-21.09 227.1-21.09 227.1-25.29 235.16-25.29 235.16-22.31 235.2-22.31Q236.01-23.02 236.93-23.66 237.84-24.29 238.84-24.76 239.84-25.22 240.93-25.49 242.02-25.76 243.21-25.76L243.21-25.76Q245.24-25.76 246.87-25.2 248.51-24.63 249.66-23.49 250.81-22.34 251.43-20.54 252.05-18.75 252.05-16.31L252.05-16.31 252.05-4.2 255.57-4.2 255.57 0 243.75 0ZM275.36-33.79L275.36-37.99 283.35-37.99 283.35-4.2 287.06-4.2 287.06 0 278.81 0 278.81-2.08Q277.58-0.83 275.97-0.13 274.36 0.56 272.31 0.56L272.31 0.56Q269.75 0.56 267.54-0.33 265.33-1.22 263.71-2.94 262.08-4.66 261.17-7.17 260.25-9.67 260.25-12.89L260.25-12.89Q260.25-15.82 261.13-18.23 262.01-20.63 263.62-22.33 265.23-24.02 267.5-24.96 269.77-25.9 272.56-25.9L272.56-25.9Q274.39-25.9 275.9-25.5 277.41-25.1 278.81-24.1L278.81-24.1 278.81-33.79 275.36-33.79ZM272.9-3.39L272.9-3.39Q274.92-3.39 276.29-3.99 277.66-4.59 278.81-5.79L278.81-5.79 278.81-19.95Q277.58-20.97 276-21.44 274.41-21.9 272.75-21.9L272.75-21.9Q271.14-21.9 269.72-21.3 268.31-20.7 267.25-19.56 266.18-18.41 265.57-16.75 264.96-15.09 264.96-12.94L264.96-12.94Q264.96-10.6 265.55-8.81 266.13-7.03 267.18-5.82 268.23-4.61 269.7-4 271.16-3.39 272.9-3.39ZM294.11-2.95L294.11-2.95Q294.11-3.59 294.37-4.16 294.62-4.74 295.05-5.16 295.48-5.59 296.06-5.85 296.65-6.1 297.31-6.1L297.31-6.1Q297.94-6.1 298.52-5.85 299.09-5.59 299.52-5.16 299.95-4.74 300.2-4.16 300.46-3.59 300.46-2.95L300.46-2.95Q300.46-2.29 300.2-1.71 299.95-1.12 299.52-0.67 299.09-0.22 298.52 0.04 297.94 0.29 297.31 0.29L297.31 0.29Q296.65 0.29 296.06 0.04 295.48-0.22 295.05-0.67 294.62-1.12 294.37-1.71 294.11-2.29 294.11-2.95ZM295.11-10.01L294.11-38.5 300.46-38.5 299.46-10.01 295.11-10.01Z" opacity="1" transform="matrix(1,0,0,1,0,0)" fill="#ffffff" class="undefined-text-1" data-fill-palette-color="secondary" id="text-1"></path></svg></g></svg></g></svg></g></svg></g><g transform="matrix(1,0,0,1,407.55387374380564,0)"><svg viewBox="0 0 129.33081892525814 129.33081892525814" height="129.33081892525814" width="129.33081892525814"><g data-palette-color="#ee3e38"><rect width="35.35042383957056" height="129.33081892525814" fill="#ffffff" stroke="transparent" data-fill-palette-color="accent" x="0" fill-opacity="1"></rect><rect width="35.35042383957056" height="129.33081892525814" fill="#ffffff" stroke="transparent" data-fill-palette-color="accent" x="43.11027297508605" fill-opacity="0.75"></rect><rect width="35.35042383957056" height="129.33081892525814" fill="#ffffff" stroke="transparent" data-fill-palette-color="accent" x="86.2205459501721" fill-opacity="0.5"></rect></g></svg></g></svg></g><defs></defs></svg><rect width="395.52" height="95.2773029288969" fill="none" stroke="none" visibility="hidden"></rect></g></svg></g></svg>